<svg width="21" height="21" viewBox="0 0 21 21" fill="none" xmlns="http://www.w3.org/2000/svg">
<path fill-rule="evenodd" clip-rule="evenodd" d="M7.67505 3.625L17.05 3.625C17.2158 3.625 17.3748 3.69085 17.492 3.80806C17.6092 3.92527 17.675 4.08424 17.675 4.25V13.625C17.675 13.9702 17.3952 14.25 17.05 14.25C16.7049 14.25 16.425 13.9702 16.425 13.625V5.75888L4.99199 17.1919C4.74791 17.436 4.35218 17.436 4.10811 17.1919C3.86403 16.9479 3.86403 16.5521 4.10811 16.3081L15.5412 4.875L7.67505 4.875C7.32987 4.875 7.05005 4.59518 7.05005 4.25C7.05005 3.90482 7.32987 3.625 7.67505 3.625Z" fill="#FFD11A"/>
</svg>
